#N canvas 274 312 320 283 10;
#X obj 91 68 inlet;
#X obj 119 130 packel 1 1;
#X obj 183 235 outlet;
#X obj 183 206 +;
#X obj 145 67 unpack 0 0;
#X obj 145 38 pack \$1 \$2;
#X obj 145 12 loadbang;
#X obj 72 198 outlet;
#X obj 116 198 outlet;
#X obj 145 99 + 1;
#X obj 198 100 + 1;
#X obj 182 179 * 256;
#X connect 0 0 1 0;
#X connect 1 0 7 0;
#X connect 1 0 11 0;
#X connect 1 1 8 0;
#X connect 1 1 3 1;
#X connect 3 0 2 0;
#X connect 4 0 9 0;
#X connect 4 1 10 0;
#X connect 5 0 4 0;
#X connect 6 0 5 0;
#X connect 9 0 1 1;
#X connect 10 0 1 2;
#X connect 11 0 3 0;
