#N canvas 663 277 288 261 10;
#X obj 52 220 outlet;
#X obj 74 90 metro \$1;
#X obj 51 45 inlet;
#X obj 112 46 inlet;
#X obj 189 43 inlet;
#X obj 53 196 gate;
#X obj 77 169 tgl 15 0 empty empty empty 17 7 0 10 -262144 -1 -1 0
1;
#X obj 75 122 random 100;
#X obj 76 147 <;
#X text 42 16 on/off;
#X text 111 17 rate;
#X text 171 17 % probability;
#X connect 1 0 7 0;
#X connect 1 0 5 1;
#X connect 2 0 1 0;
#X connect 3 0 1 1;
#X connect 4 0 8 1;
#X connect 5 0 0 0;
#X connect 6 0 5 0;
#X connect 7 0 8 0;
#X connect 8 0 6 0;
