#N canvas 597 192 462 351 10;
#X obj 201 67 weather-station;
#X obj 191 111 hsl 128 15 0 127 0 0 empty empty empty -2 -8 0 10 -262144
-1 -1 0 1;
#X obj 191 135 hsl 128 15 0 127 0 0 empty empty empty -2 -8 0 10 -262144
-1 -1 0 1;
#X obj 192 160 hsl 128 15 0 127 0 0 empty empty empty -2 -8 0 10 -262144
-1 -1 0 1;
#X text 62 107 daily cycle (solar);
#X text 58 132 temperature changes;
#X text 46 156 pressure fluctuations;
#X text 116 184 cloudiness;
#X obj 192 188 hsl 128 15 0 127 0 0 empty empty empty -2 -8 0 10 -262144
-1 -1 0 1;
#N canvas 101 88 713 617 sound 0;
#X obj 329 21 knob 64 64 0 360 0 1 empty sunlight sunlight 0 -8 0 12
-13381 -260097 -260097 2000 1;
#X obj 403 42 s sunlight;
#X floatatom 403 20 5 0 0 0 - - -;
#X msg 104 102 \; pd dsp 1;
#X msg 223 236 1;
#X msg 34 155 43;
#X msg 167 159 43.5;
#X msg 212 132 0;
#X obj 34 84 tgl 15 0 empty empty empty 17 7 0 10 -262144 -1 -1 1 1
;
#X floatatom 102 12 5 0 0 0 - - -;
#X floatatom 141 12 5 0 0 0 - - -;
#X floatatom 304 106 5 0 0 0 - - -;
#X obj 305 148 noise~;
#X text 522 293 zero = off;
#X floatatom 478 288 4 0 10 0 - - -;
#X msg 478 311 choice \$1;
#X obj 478 189 metro 80;
#X floatatom 551 100 4 0 0 0 - - -;
#X msg 554 144 1000;
#X msg 554 123 80;
#X text 523 281 change input channel 1- 10;
#X obj 431 148 vsl 15 128 0 5 0 1 choice aaa choice 8 -8 1 10 -228992
-62784 -62784 12700 1;
#X obj 355 425 polygate~ 5 100;
#N canvas 541 127 450 300 filter2 0;
#X obj 180 152 lop~ 4000;
#X obj 175 190 outlet~;
#X obj 174 63 inlet~;
#X obj 179 99 hip~ 30;
#X connect 0 0 1 0;
#X connect 2 0 3 0;
#X connect 3 0 0 0;
#X restore 268 318 pd filter2;
#N canvas 541 127 450 300 filter3 0;
#X obj 174 218 outlet~;
#X obj 170 63 inlet~;
#X obj 215 95 noise~;
#X obj 186 126 *~ 0.01;
#X obj 174 186 lop~ 5000;
#X obj 170 160 +~;
#X connect 1 0 5 0;
#X connect 2 0 3 0;
#X connect 3 0 5 1;
#X connect 4 0 0 0;
#X connect 5 0 4 0;
#X restore 268 341 pd filter3;
#N canvas 541 127 450 300 filter4 0;
#X obj 175 190 outlet~;
#X obj 174 63 inlet~;
#X obj 168 93 hip~ 10;
#X obj 168 113 hip~ 10;
#X obj 168 133 lop~ 1000;
#X obj 168 153 lop~ 1000;
#X connect 1 0 2 0;
#X connect 2 0 3 0;
#X connect 3 0 4 0;
#X connect 4 0 5 0;
#X connect 5 0 0 0;
#X restore 267 362 pd filter4;
#N canvas 541 127 450 300 filter1 0;
#X obj 175 190 outlet~;
#X obj 174 63 inlet~;
#X obj 175 158 lop~ 1000;
#X obj 175 98 hip~ 20;
#X connect 1 0 3 0;
#X connect 2 0 0 0;
#X connect 3 0 2 0;
#X restore 269 293 pd filter1;
#X obj 478 212 shuffle 1 5 0.25;
#X msg 554 167 5000;
#N canvas 812 169 450 300 filter5 0;
#X obj 182 186 outlet~;
#X obj 174 63 inlet~;
#X obj 231 90 osc~ 0.01;
#X obj 182 158 *~;
#X msg 285 58 1;
#X msg 285 36 0;
#X obj 175 112 bp~ 1000 100;
#X connect 1 0 6 0;
#X connect 2 0 3 1;
#X connect 3 0 0 0;
#X connect 4 0 2 1;
#X connect 5 0 2 1;
#X connect 6 0 3 0;
#X restore 267 386 pd filter5;
#X msg 354 314 choice 1;
#X obj 34 108 t b b b;
#X obj 137 386 adc~;
#X obj 478 162 tgl 15 0 empty empty empty 17 7 0 10 -262144 -1 -1 1
1;
#X obj 223 261 metro 25;
#X floatatom 276 217 5 0 0 0 - - -;
#X obj 305 169 *~ 0.001;
#X obj 182 56 table \$0-tableP 1027;
#X obj 183 78 table \$0-tableQ 2051;
#X obj 36 179 tabosc4~ \$0-tableP;
#X obj 149 527 delay 10;
#X obj 166 179 tabosc4~ \$0-tableP;
#X obj 213 480 tabwrite~ \$0-tableP;
#X obj 152 552 tabwrite~ \$0-tableQ;
#X obj 522 73 pmetro 1000 50;
#X obj 514 44 tgl 15 0 empty empty empty 17 7 0 10 -262144 -1 -1 1
1;
#X floatatom 561 29 5 0 0 0 - - -;
#X floatatom 601 28 5 0 0 0 - - -;
#N canvas 504 247 520 438 pann-ic 0;
#X obj 212 342 dac~;
#X obj 149 280 pan~;
#X obj 238 305 pan~;
#X obj 148 253 *~ 0.5;
#X obj 184 109 random 90;
#X obj 184 137 - 45;
#X obj 80 166 inlet~;
#X obj 272 143 inlet~;
#X obj 183 79 metro 100;
#X obj 184 187 line;
#X obj 148 15 loadbang;
#X obj 161 78 tgl 15 0 empty empty empty 17 7 0 10 -262144 -1 -1 1
1;
#X msg 150 42 1;
#X obj 233 268 *~ 0.5;
#X obj 331 118 random 90;
#X obj 331 146 - 45;
#X obj 330 88 metro 100;
#X obj 331 196 line;
#X obj 308 87 tgl 15 0 empty empty empty 17 7 0 10 -262144 -1 -1 1
1;
#X floatatom 243 28 5 0 0 0 - - -;
#X floatatom 389 32 5 0 0 0 - - -;
#X msg 331 171 \$1 555;
#X msg 181 162 \$1 505;
#X connect 1 0 0 0;
#X connect 1 1 0 1;
#X connect 2 0 0 0;
#X connect 2 1 0 1;
#X connect 3 0 1 0;
#X connect 4 0 5 0;
#X connect 5 0 22 0;
#X connect 6 0 3 0;
#X connect 7 0 13 0;
#X connect 8 0 4 0;
#X connect 9 0 1 1;
#X connect 10 0 12 0;
#X connect 11 0 8 0;
#X connect 12 0 11 0;
#X connect 12 0 18 0;
#X connect 13 0 2 0;
#X connect 14 0 15 0;
#X connect 15 0 21 0;
#X connect 16 0 14 0;
#X connect 17 0 2 1;
#X connect 18 0 16 0;
#X connect 19 0 8 1;
#X connect 20 0 16 1;
#X connect 21 0 17 0;
#X connect 22 0 9 0;
#X restore 374 474 pd pann-ic;
#X obj 37 240 expr~ 0.4*tanh($v1*1.8);
#X connect 2 0 1 0;
#X connect 4 0 34 0;
#X connect 5 0 39 0;
#X connect 6 0 41 0;
#X connect 7 0 39 1;
#X connect 7 0 41 1;
#X connect 8 0 31 0;
#X connect 9 0 5 0;
#X connect 10 0 6 0;
#X connect 12 0 36 0;
#X connect 14 0 15 0;
#X connect 15 0 22 0;
#X connect 16 0 27 0;
#X connect 17 0 16 1;
#X connect 18 0 16 1;
#X connect 19 0 16 1;
#X connect 21 0 14 0;
#X connect 22 0 42 0;
#X connect 22 0 48 0;
#X connect 22 0 48 1;
#X connect 23 0 22 1;
#X connect 24 0 22 2;
#X connect 25 0 22 3;
#X connect 26 0 22 0;
#X connect 27 0 14 0;
#X connect 28 0 16 1;
#X connect 29 0 22 4;
#X connect 30 0 22 0;
#X connect 31 0 5 0;
#X connect 31 0 6 0;
#X connect 31 0 4 0;
#X connect 31 0 7 0;
#X connect 31 1 3 0;
#X connect 31 2 30 0;
#X connect 32 0 42 0;
#X connect 32 0 43 0;
#X connect 32 1 42 0;
#X connect 32 1 43 0;
#X connect 33 0 16 0;
#X connect 34 0 40 0;
#X connect 34 0 42 0;
#X connect 35 0 34 1;
#X connect 36 0 49 0;
#X connect 39 0 49 0;
#X connect 40 0 43 0;
#X connect 41 0 49 0;
#X connect 44 0 27 0;
#X connect 45 0 44 0;
#X connect 46 0 44 1;
#X connect 47 0 44 2;
#X connect 49 0 23 0;
#X connect 49 0 26 0;
#X connect 49 0 24 0;
#X connect 49 0 25 0;
#X connect 49 0 29 0;
#X restore 233 246 pd sound;
#N canvas 687 151 531 435 credits 0;
#X text 55 106 2008 (GPL) Claude Heiland-Allen <claudiusmaximus@goto10.org>
;
#X text 56 30 2012 (GPL) nik gaffney <nik@fo.am>;
#X text 54 84 incorporating table feedback examples from;
#X restore 291 294 pd credits;
