#N canvas 160 22 754 691 10;
#X obj 396 15 numberbox 64 32 bpm-r bpm 30 300 125;
#X obj 18 15 hsl 256 32 0 127 0 0 length empty delay -2 -8 0 10 -262144
-1 -1 0 1;
#X obj 18 64 hsl 256 32 0 1 0 0 feedback empty feedback -2 -8 0 10
-262144 -1 -1 0 1;
#X obj 348 116 knob 64 64 0 360 0 1 empty sunlight sunlight 0 -8 0
12 -13381 -260097 -260097 17 1;
#X obj 422 137 s sunlight;
#X floatatom 422 115 5 0 0 0 - - -;
#X msg 123 197 \; pd dsp 1;
#X msg 242 331 1;
#X msg 53 250 43;
#X msg 186 254 43.5;
#X msg 231 227 0;
#X floatatom 121 107 5 0 0 0 - - -;
#X floatatom 160 107 5 0 0 0 - - -;
#X floatatom 323 201 5 0 0 0 - - -;
#X obj 324 243 noise~;
#X text 541 388 zero = off;
#X floatatom 497 383 4 0 10 0 - - -;
#X msg 497 406 choice \$1;
#X obj 497 284 metro 80;
#X floatatom 570 195 4 0 0 0 - - -;
#X msg 573 239 1000;
#X msg 573 218 80;
#X text 542 376 change input channel 1- 10;
#X obj 450 243 vsl 15 128 0 5 0 1 choice aaa choice 8 -8 1 10 -228992
-62784 -62784 12700 1;
#X obj 374 520 polygate~ 5 100;
#N canvas 541 127 450 300 filter2 0;
#X obj 180 152 lop~ 4000;
#X obj 175 190 outlet~;
#X obj 174 63 inlet~;
#X obj 179 99 hip~ 30;
#X connect 0 0 1 0;
#X connect 2 0 3 0;
#X connect 3 0 0 0;
#X restore 287 413 pd filter2;
#N canvas 541 127 450 300 filter3 0;
#X obj 174 218 outlet~;
#X obj 170 63 inlet~;
#X obj 215 95 noise~;
#X obj 186 126 *~ 0.01;
#X obj 174 186 lop~ 5000;
#X obj 170 160 +~;
#X connect 1 0 5 0;
#X connect 2 0 3 0;
#X connect 3 0 5 1;
#X connect 4 0 0 0;
#X connect 5 0 4 0;
#X restore 287 436 pd filter3;
#N canvas 541 127 450 300 filter4 0;
#X obj 175 190 outlet~;
#X obj 174 63 inlet~;
#X obj 168 93 hip~ 10;
#X obj 168 113 hip~ 10;
#X obj 168 133 lop~ 1000;
#X obj 168 153 lop~ 1000;
#X connect 1 0 2 0;
#X connect 2 0 3 0;
#X connect 3 0 4 0;
#X connect 4 0 5 0;
#X connect 5 0 0 0;
#X restore 286 457 pd filter4;
#N canvas 541 127 450 300 filter1 0;
#X obj 175 190 outlet~;
#X obj 174 63 inlet~;
#X obj 175 158 lop~ 1000;
#X obj 175 98 hip~ 20;
#X connect 1 0 3 0;
#X connect 2 0 0 0;
#X connect 3 0 2 0;
#X restore 288 388 pd filter1;
#X obj 497 307 shuffle 1 5 0.25;
#X msg 573 262 5000;
#N canvas 812 169 450 300 filter5 0;
#X obj 182 186 outlet~;
#X obj 174 63 inlet~;
#X obj 231 90 osc~ 0.01;
#X obj 182 158 *~;
#X msg 285 58 1;
#X msg 285 36 0;
#X obj 175 112 bp~ 1000 100;
#X connect 1 0 6 0;
#X connect 2 0 3 1;
#X connect 3 0 0 0;
#X connect 4 0 2 1;
#X connect 5 0 2 1;
#X connect 6 0 3 0;
#X restore 286 481 pd filter5;
#X msg 373 409 choice 1;
#X obj 53 203 t b b b;
#X obj 156 481 adc~;
#X obj 497 257 tgl 15 0 empty empty empty 17 7 0 10 -262144 -1 -1 0
1;
#X obj 242 356 metro 25;
#X floatatom 295 312 5 0 0 0 - - -;
#X obj 324 264 *~ 0.001;
#X obj 201 151 table \$0-tableP 1027;
#X obj 202 173 table \$0-tableQ 2051;
#X obj 55 274 tabosc4~ \$0-tableP;
#X obj 168 622 delay 10;
#X obj 185 274 tabosc4~ \$0-tableP;
#X obj 232 575 tabwrite~ \$0-tableP;
#X obj 171 647 tabwrite~ \$0-tableQ;
#X obj 541 168 pmetro 1000 50;
#X obj 533 139 tgl 15 0 empty empty empty 17 7 0 10 -262144 -1 -1 0
1;
#X floatatom 580 124 5 0 0 0 - - -;
#X floatatom 620 123 5 0 0 0 - - -;
#N canvas 504 247 520 438 pann-ic 0;
#X obj 212 342 dac~;
#X obj 149 280 pan~;
#X obj 238 305 pan~;
#X obj 148 253 *~ 0.5;
#X obj 184 109 random 90;
#X obj 184 137 - 45;
#X obj 80 166 inlet~;
#X obj 272 143 inlet~;
#X obj 183 79 metro 100;
#X obj 184 187 line;
#X obj 148 15 loadbang;
#X obj 161 78 tgl 15 0 empty empty empty 17 7 0 10 -262144 -1 -1 1
1;
#X msg 150 42 1;
#X obj 233 268 *~ 0.5;
#X obj 331 118 random 90;
#X obj 331 146 - 45;
#X obj 330 88 metro 100;
#X obj 331 196 line;
#X obj 308 87 tgl 15 0 empty empty empty 17 7 0 10 -262144 -1 -1 1
1;
#X floatatom 243 28 5 0 0 0 - - -;
#X floatatom 389 32 5 0 0 0 - - -;
#X msg 331 171 \$1 555;
#X msg 181 162 \$1 505;
#X connect 1 0 0 0;
#X connect 1 1 0 1;
#X connect 2 0 0 0;
#X connect 2 1 0 1;
#X connect 3 0 1 0;
#X connect 4 0 5 0;
#X connect 5 0 22 0;
#X connect 6 0 3 0;
#X connect 7 0 13 0;
#X connect 8 0 4 0;
#X connect 9 0 1 1;
#X connect 10 0 12 0;
#X connect 11 0 8 0;
#X connect 12 0 11 0;
#X connect 12 0 18 0;
#X connect 13 0 2 0;
#X connect 14 0 15 0;
#X connect 15 0 21 0;
#X connect 16 0 14 0;
#X connect 17 0 2 1;
#X connect 18 0 16 0;
#X connect 19 0 8 1;
#X connect 20 0 16 1;
#X connect 21 0 17 0;
#X connect 22 0 9 0;
#X restore 393 569 pd pann-ic;
#X obj 56 335 expr~ 0.4*tanh($v1*1.8);
#X obj 46 123 loadbang;
#X msg 523 106 1;
#X connect 5 0 4 0;
#X connect 7 0 36 0;
#X connect 8 0 41 0;
#X connect 9 0 43 0;
#X connect 10 0 41 1;
#X connect 10 0 43 1;
#X connect 11 0 8 0;
#X connect 12 0 9 0;
#X connect 14 0 38 0;
#X connect 16 0 17 0;
#X connect 17 0 24 0;
#X connect 18 0 29 0;
#X connect 19 0 18 1;
#X connect 20 0 18 1;
#X connect 21 0 18 1;
#X connect 23 0 16 0;
#X connect 24 0 44 0;
#X connect 24 0 50 0;
#X connect 24 0 50 1;
#X connect 25 0 24 1;
#X connect 26 0 24 2;
#X connect 27 0 24 3;
#X connect 28 0 24 0;
#X connect 29 0 16 0;
#X connect 30 0 18 1;
#X connect 31 0 24 4;
#X connect 32 0 24 0;
#X connect 33 0 8 0;
#X connect 33 0 9 0;
#X connect 33 0 7 0;
#X connect 33 0 10 0;
#X connect 33 1 6 0;
#X connect 33 2 32 0;
#X connect 34 0 44 0;
#X connect 34 0 45 0;
#X connect 34 1 44 0;
#X connect 34 1 45 0;
#X connect 35 0 18 0;
#X connect 36 0 42 0;
#X connect 36 0 44 0;
#X connect 37 0 36 1;
#X connect 38 0 51 0;
#X connect 41 0 51 0;
#X connect 42 0 45 0;
#X connect 43 0 51 0;
#X connect 46 0 29 0;
#X connect 47 0 46 0;
#X connect 48 0 46 1;
#X connect 49 0 46 2;
#X connect 51 0 25 0;
#X connect 51 0 28 0;
#X connect 51 0 26 0;
#X connect 51 0 27 0;
#X connect 51 0 31 0;
#X connect 52 0 33 0;
#X connect 52 0 53 0;
#X connect 53 0 47 0;
